<svg width="909" height="323" viewBox="0 0 909 323" fill="none" xmlns="http://www.w3.org/2000/svg">
<path d="M544.67 240.698C538.876 254.483 529.836 263.324 517.549 267.22C505.362 271.116 494.223 269.667 484.134 262.875C474.045 255.982 469 245.393 469 231.108C469 216.124 474.894 204.886 486.681 197.394C498.569 189.901 510.506 188.103 522.494 191.999C534.581 195.795 540.625 204.486 540.625 218.072H476.192V215.225H527.588L525.341 216.723C525.341 215.524 525.241 214.376 525.041 213.277C524.142 204.486 519.946 198.542 512.454 195.446C505.062 192.349 498.119 193.448 491.626 198.742C485.233 203.937 482.436 212.727 483.235 225.114C483.934 237.701 488.08 247.191 495.672 253.584C503.364 259.978 511.955 262.075 521.445 259.878C530.935 257.58 538.477 251.137 544.071 240.548L544.67 240.698Z" fill="#F9C0BC"/>
<path d="M380.549 254.621C376.853 262.114 371.808 267.108 365.415 269.606C359.022 272.203 353.328 271.803 348.333 268.407C343.438 264.911 340.991 259.017 340.991 250.726V197.232H332L356.424 180V194.535H379.2L378.751 197.232H356.424V246.08C356.424 251.874 357.773 256.22 360.47 259.117C363.267 261.914 366.514 262.863 370.21 261.964C374.006 261.065 377.252 258.517 379.95 254.322L380.549 254.621Z" fill="#F9C0BC"/>
<path d="M445.188 270.672C445.188 267.875 445.188 265.777 445.188 264.379C445.188 262.88 445.188 261.482 445.188 260.183C445.188 258.784 445.188 256.687 445.188 253.89V222.573C445.188 213.182 442.94 206.889 438.445 203.692C433.95 200.496 428.206 199.996 421.213 202.194C414.22 204.392 407.178 208.487 400.085 214.481V212.683C410.774 203.992 420.713 198.248 429.904 195.451C439.194 192.654 446.586 193.303 452.08 197.399C457.575 201.395 460.322 208.837 460.322 219.726V253.74C460.322 256.537 460.322 258.635 460.322 260.033C460.322 261.432 460.322 262.83 460.322 264.229C460.322 265.527 460.322 267.625 460.322 270.522V271.271H445.188V270.672ZM388.697 270.672C388.697 266.876 388.697 264.079 388.697 262.281C388.697 260.483 388.697 257.736 388.697 254.039V179.418C388.697 177.92 388.597 176.421 388.397 174.923C388.198 173.324 387.848 171.776 387.349 170.278C386.949 168.679 386.499 167.081 386 165.483L403.981 149V253.89C403.981 256.687 403.981 258.784 403.981 260.183C403.981 261.581 403.981 263.03 403.981 264.528C403.981 266.027 403.981 268.175 403.981 270.972V271.271H388.697V270.672Z" fill="#F9C0BC"/>
<path d="M170.25 261.976C164.756 266.571 158.512 269.468 151.52 270.667C144.627 271.866 137.834 271.316 131.141 269.019C124.548 266.621 118.904 262.726 114.209 257.331C109.614 251.737 106.717 245.494 105.518 238.601C104.419 231.608 105.069 224.815 107.466 218.222C109.863 211.629 113.809 205.985 119.304 201.29C124.798 196.695 130.991 193.798 137.884 192.599C144.777 191.401 151.52 192 158.113 194.397C164.706 196.795 170.3 200.791 174.895 206.385C179.49 211.879 182.387 218.073 183.586 224.965C184.785 231.858 184.235 238.601 181.938 245.194C179.64 251.787 175.744 257.381 170.25 261.976ZM160.061 250.888C165.355 246.493 169.501 241.598 172.497 236.203C175.494 230.809 177.043 225.615 177.143 220.62C177.342 215.525 175.944 211.18 172.947 207.584C169.85 203.987 165.805 201.89 160.81 201.29C155.915 200.591 150.571 201.29 144.777 203.388C139.083 205.486 133.638 208.782 128.444 213.278C123.05 217.673 118.854 222.518 115.857 227.812C112.96 233.007 111.462 238.101 111.362 243.096C111.262 248.091 112.71 252.386 115.707 255.983C118.704 259.579 122.65 261.777 127.545 262.576C132.54 263.275 137.884 262.626 143.578 260.628C149.272 258.53 154.766 255.283 160.061 250.888Z" fill="#F9C0BC"/>
<path d="M14.5347 267.893C14.5347 263.797 14.5347 259.651 14.5347 255.456V195.968H0V193.271H14.5347C14.5347 186.279 17.3318 180.035 22.9259 174.541C28.6199 169.047 35.5126 164.801 43.6041 161.804C51.6956 158.708 59.0878 157.109 65.7807 157.009C71.8743 156.909 76.0699 157.609 78.3675 159.107C77.0688 161.305 75.3706 163.552 73.2728 165.85C71.4747 167.748 69.3769 169.496 66.9795 171.095C65.8806 170.295 64.6319 169.496 63.2334 168.697C61.9348 167.898 60.5862 167.199 59.1877 166.599C54.3927 164.501 50.5468 163.453 47.6498 163.453C44.4532 163.453 41.5063 164.202 38.8091 165.7C36.2119 167.099 34.0641 169.346 32.3659 172.443C30.7676 175.44 29.9684 179.286 29.9684 183.981L29.8186 193.271H51.3959V195.968H29.8186V255.456C29.8186 258.253 29.8685 260.401 29.9684 261.899C30.0683 263.297 30.3181 265.295 30.7177 267.893V268.192H14.5347V267.893Z" fill="#F9C0BC"/>
<path d="M77.1924 229.535V269.094H62.5078V192.674H77.1924V207.209H77.492C81.5378 197.619 87.6813 190.876 98.0204 190.876C100.718 190.876 102.815 191.026 105.063 191.325V205.411C103.265 205.111 101.916 204.961 100.118 204.961C86.7823 204.961 77.1924 215.001 77.1924 229.535Z" fill="#F9C0BC"/>
<path d="M409.252 131.483C384.978 131.483 371.492 114.251 371.492 90.8754C371.492 66.9006 385.877 50.418 409.252 50.418C432.478 50.418 445.514 65.7019 445.514 89.3769C445.514 91.4747 445.514 93.7224 445.364 94.9211H386.626C386.926 107.658 394.418 119.495 409.552 119.495C423.038 119.495 428.282 110.804 429.631 105.71H444.615C440.569 120.394 429.331 131.483 409.252 131.483ZM386.626 83.3833H430.23C430.23 71.3959 421.839 62.4053 408.803 62.4053C396.516 62.4053 387.525 70.7965 386.626 83.3833Z" fill="#F9C0BC"/>
<path d="M301.758 80.2371C301.758 70.0479 299.66 63.1551 288.422 63.1551C277.484 63.1551 270.591 70.7971 270.591 82.3349V129.236H255.906V52.816H270.591V62.4059H270.89C274.936 56.5621 281.979 50.5684 293.517 50.5684C304.155 50.5684 310.749 55.3633 313.745 63.9043H314.045C319.589 56.5621 327.381 50.5684 339.069 50.5684C354.502 50.5684 362.294 59.8586 362.294 76.1914V129.236H347.61V80.2371C347.61 70.0479 345.512 63.1551 334.274 63.1551C323.335 63.1551 316.443 70.7971 316.443 82.3349V129.236H301.758V80.2371Z" fill="#F9C0BC"/>
<path d="M235.852 220.669C235.852 210.479 233.754 203.587 222.516 203.587C211.577 203.587 204.685 211.229 204.685 222.767V269.667H190V193.248H204.685V202.838H204.984C209.03 196.994 216.073 191 227.61 191C238.249 191 244.842 195.795 247.839 204.336H248.139C253.683 196.994 261.475 191 273.162 191C288.596 191 296.388 200.29 296.388 216.623V269.667H281.703V220.669C281.703 210.479 279.606 203.587 268.367 203.587C257.429 203.587 250.536 211.229 250.536 222.767V269.667H235.852V220.669Z" fill="#F9C0BC"/>
<path d="M208.202 131.483C184.377 131.483 169.992 115 169.992 91.0252C169.992 67.2003 184.377 50.418 208.352 50.418C232.027 50.418 246.412 67.0505 246.412 90.8754C246.412 114.85 232.027 131.483 208.202 131.483ZM185.276 91.0252C185.276 106.908 192.469 119.345 208.352 119.345C223.935 119.345 231.128 106.908 231.128 91.0252C231.128 74.9921 223.935 62.705 208.352 62.705C192.469 62.705 185.276 74.9921 185.276 91.0252Z" fill="#F9C0BC"/>
<path d="M125.35 131.333C98.2287 131.333 79.1987 117.248 78 93.123H95.082C96.2808 107.508 104.822 117.248 124.901 117.248C142.132 117.248 147.377 109.755 147.377 100.016C147.377 86.3801 136.888 84.4322 117.409 79.4874C100.626 74.9921 82.1956 69.5978 82.1956 49.2192C82.1956 30.6388 96.5804 20 119.656 20C144.08 20 159.964 32.4369 161.612 54.0142H144.53C142.732 41.1278 135.39 34.0852 119.806 34.0852C106.32 34.0852 99.4274 39.03 99.4274 48.3202C99.4274 60.3076 110.666 62.8549 124.451 66.3012C145.129 71.5457 164.609 76.4905 164.609 99.1167C164.609 117.547 152.172 131.333 125.35 131.333Z" fill="#F9C0BC"/>
<path d="M515.489 67.32L509.469 55.84L509.049 55H529.349L529.769 55.84L535.789 67.6L554.829 104.84L565.329 82.58C569.249 74.18 568.689 63.82 562.669 55.28V55H580.449V55.28L567.569 82.58L547.129 126.68H546.569L525.569 86.5L506.669 126.68H505.969L474.749 68.58C472.509 64.38 470.129 60.18 468.029 55.98L467.469 55H487.769L488.189 55.84L494.349 67.46L514.509 105.12L524.309 84.12L515.489 67.32ZM639.528 118C623.708 131.16 600.468 129.06 587.168 113.66C574.008 97.7 576.248 74.6 591.928 61.3C607.608 48.14 630.708 50.1 643.868 66.06C657.028 81.6 655.068 104.98 639.528 118ZM627.628 104.28C642.468 91.82 649.328 75.72 642.048 67.04C634.628 58.22 617.828 62.7 603.128 75.16C588.008 87.62 581.288 103.72 588.568 112.54C595.848 121.22 612.648 116.88 627.628 104.28ZM658.306 123.88V107.78V81.04C658.306 74.18 657.466 69 656.206 65.08L656.066 64.66L677.066 52.62V70.12C684.906 61.3 699.186 52.62 709.406 52.62L704.226 69.42C694.146 66.48 683.226 67.04 677.066 72.36V108.34C677.066 115.62 677.766 121.22 679.306 124.44L679.586 125H658.306V123.88ZM761.238 39.18C761.238 34.7 760.258 30.64 758.718 26.16L779.998 10.76V108.9C779.998 114.5 780.418 119.54 782.518 125H761.238V118.42C740.378 135.64 707.058 125.7 707.058 91.96C707.058 58.78 738.698 44.36 761.238 56.68V39.18ZM726.518 87.9C726.518 115.9 745.278 129.48 761.238 115.76V60.04C743.458 49.96 726.518 60.32 726.518 87.9ZM826.072 126.68C817.952 126.68 807.032 125.14 799.612 122.76L789.532 93.92H790.092C801.572 113.8 816.832 123.32 829.432 123.32C838.112 123.32 842.592 118.98 842.732 114.5C842.872 110.16 838.952 105.54 830.972 102.32C823.272 99.24 818.372 97.42 805.072 90.7C797.092 86.64 793.452 80.34 793.452 74.04C793.452 63.4 803.952 52.62 822.852 52.62C829.992 52.62 840.912 53.88 848.612 55.84L855.892 78.94L855.332 79.08C848.052 69 839.372 55.56 820.052 55.56C810.672 55.56 804.652 59.2 804.372 63.68C804.372 66.2 805.912 69 809.832 71.52C815.712 75.3 835.872 83.42 843.432 87.34C852.392 91.96 855.892 97.98 855.892 103.86C855.892 115.48 841.612 126.68 826.072 126.68Z" fill="#F9C0BC"/>
<path d="M647.203 243.08C634.183 282.84 576.503 276.82 576.503 233.56C576.503 200.38 611.643 187.78 639.503 200.52L642.303 220.26H642.163C628.303 186.38 588.963 194.08 594.003 230.48C598.343 261.84 632.783 271.22 646.923 242.94L647.203 243.08ZM652.388 267.44V252.04V182.18C652.388 177.7 651.408 173.64 649.868 169.16L671.148 153.76V251.9V267.72V268H652.388V267.44ZM684.865 268V250.92V224.04C684.865 218.02 684.725 214.24 682.625 207.66L703.625 195.62V219.28V251.34C703.625 257.36 704.465 262.82 706.145 268H684.865ZM693.545 190.02C688.365 190.02 684.025 186.8 682.905 182.18C681.085 174.76 687.805 168.6 695.365 168.6C700.125 168.6 705.305 171.54 706.565 176.3C708.105 182.88 702.225 190.02 693.545 190.02ZM780.58 242.94C762.38 283.68 709.88 275.56 709.88 234.4C709.88 189.04 777.64 181.76 777.36 221.8H726.96C726.96 223.9 726.96 226.14 727.24 228.52C730.32 262.4 763.64 271.5 780.02 242.8L780.58 242.94ZM727.1 219.14H759.02L758.88 217.74C756.78 195.48 729.34 190.72 727.1 219.14ZM837.217 267.3V251.76V223.34C837.217 198.84 820.417 199.54 803.897 210.6V251.34C803.897 258.62 804.597 264.22 806.137 267.44L806.417 268H785.137V266.88V250.78V224.04C785.137 217.18 784.297 212 783.037 208.08L782.897 207.66L803.897 195.62V208.78C832.877 188.2 855.697 191.28 855.697 219.84V251.62V267.16V268H837.217V267.3ZM908.995 254.14C898.215 275.98 870.075 275 870.075 250.5V200.66H862.655L888.975 184.42V198H908.575V200.66H888.975V244.2C888.975 259.74 901.155 263.8 908.435 253.86L908.995 254.14Z" fill="#F9C0BC"/>
</svg>
