<svg width="1038" height="323" viewBox="0 0 1038 323" fill="none" xmlns="http://www.w3.org/2000/svg">
<path d="M479.634 243.08C466.614 282.84 408.934 276.82 408.934 233.56C408.934 200.38 444.074 187.78 471.934 200.52L474.734 220.26H474.594C460.734 186.38 421.394 194.08 426.434 230.48C430.774 261.84 465.214 271.22 479.354 242.94L479.634 243.08ZM539.175 261C523.355 274.16 500.115 272.06 486.815 256.66C473.655 240.7 475.895 217.6 491.575 204.3C507.255 191.14 530.355 193.1 543.515 209.06C556.675 224.6 554.715 247.98 539.175 261ZM527.275 247.28C542.115 234.82 548.975 218.72 541.695 210.04C534.275 201.22 517.475 205.7 502.775 218.16C487.655 230.62 480.935 246.72 488.215 255.54C495.495 264.22 512.295 259.88 527.275 247.28ZM654.306 266.6V251.62V222.08C654.306 199.12 639.606 200.1 625.186 209.76C625.746 212.7 626.166 215.92 626.166 219.7V251.76V266.74V268H607.406V266.88V251.9V223.2C607.406 198.84 592.986 200.1 578.426 209.62V251.34C578.426 258.62 579.126 264.22 580.666 267.44L580.946 268H559.666V266.88V250.78V224.04C559.666 217.18 558.826 212 557.566 208.08L557.426 207.66L578.426 195.62V207.66C599.706 192.82 619.306 190.16 624.766 208.36C651.786 189.04 673.066 190.3 673.066 219.84V251.62V266.88V268H654.306V266.6ZM685.254 182.18C685.254 178.4 684.414 173.78 682.734 169.16L704.014 153.76V203.32C725.854 186.94 759.034 197.3 759.034 229.64C759.034 262.68 725.154 279.06 702.474 264.08L685.254 269.68V182.18ZM704.014 262.12C721.934 273.04 740.134 261.56 740.134 233C740.134 203.74 721.094 191.7 704.014 205.7V262.12ZM769.001 268V250.92V224.04C769.001 218.02 768.861 214.24 766.761 207.66L787.761 195.62V219.28V251.34C787.761 257.36 788.601 262.82 790.281 268H769.001ZM777.681 190.02C772.501 190.02 768.161 186.8 767.041 182.18C765.221 174.76 771.941 168.6 779.501 168.6C784.261 168.6 789.441 171.54 790.701 176.3C792.241 182.88 786.361 190.02 777.681 190.02ZM854.152 267.3V251.76V223.34C854.152 198.84 837.352 199.54 820.832 210.6V251.34C820.832 258.62 821.532 264.22 823.072 267.44L823.352 268H802.072V266.88V250.78V224.04C802.072 217.18 801.232 212 799.972 208.08L799.832 207.66L820.832 195.62V208.78C849.812 188.2 872.632 191.28 872.632 219.84V251.62V267.16V268H854.152V267.3ZM952.424 242.94C934.224 283.68 881.724 275.56 881.724 234.4C881.724 189.04 949.484 181.76 949.204 221.8H898.804C898.804 223.9 898.804 226.14 899.084 228.52C902.164 262.4 935.484 271.5 951.864 242.8L952.424 242.94ZM898.944 219.14H930.864L930.724 217.74C928.624 195.48 901.184 190.72 898.944 219.14ZM1010.21 182.18C1010.21 177.7 1009.23 173.64 1007.69 169.16L1028.97 153.76V251.9C1028.97 257.5 1029.39 262.54 1031.49 268H1010.21V261.42C989.353 278.64 956.033 268.7 956.033 234.96C956.033 201.78 987.673 187.36 1010.21 199.68V182.18ZM975.493 230.9C975.493 258.9 994.253 272.48 1010.21 258.76V203.04C992.433 192.96 975.493 203.32 975.493 230.9Z" fill="#F9C0BC"/>
<path d="M50.5996 226.7C50.5996 215.92 48.3596 212.28 40.3796 212.28C33.3796 212.28 28.7596 216.62 28.7596 226.56V268H6.35962V196.32H28.7596V206.68H29.0396C32.8196 200.1 40.6596 194.08 51.4396 194.08C60.8196 194.08 67.3996 199.26 70.1996 206.68H70.4796C76.6396 199.54 82.9396 194.08 94.5596 194.08C108.98 194.08 117.52 203.18 117.52 219.56V268H94.8396V226.7C94.8396 215.92 92.5996 212.28 84.6196 212.28C77.4796 212.28 72.9996 216.62 72.9996 226.56V268H50.5996V226.7ZM126.606 268V196.32H149.006V268H126.606ZM126.606 187.78V167.9H149.006V187.78H126.606ZM205.573 226.7C205.573 215.92 201.793 212.28 194.373 212.28C185.833 212.28 180.933 216.62 180.933 226.56V268H158.533V196.32H180.933V206.68H181.213C184.993 200.1 191.993 194.08 204.733 194.08C218.593 194.08 227.973 203.18 227.973 219.56V268H205.573V226.7ZM265.361 270.24C246.321 270.24 234.141 255.68 234.141 232.16C234.141 208.64 246.321 194.08 265.361 194.08C275.721 194.08 283.281 199.68 286.081 203.46H286.361V167.9H308.761V268H286.361V260.86H286.081C283.281 264.64 275.721 270.24 265.361 270.24ZM257.101 232.16C257.101 246.16 262.421 253.44 271.521 253.44C280.621 253.44 285.941 246.16 285.941 232.16C285.941 218.16 280.621 210.88 271.521 210.88C262.421 210.88 257.101 218.16 257.101 232.16ZM350.006 270.24C324.946 270.24 315.146 258.2 314.586 244.2H335.586C336.286 251.34 341.046 254.84 349.586 254.84C356.166 254.84 359.106 252.74 359.106 248.68C359.106 242.24 351.966 241.54 341.606 239.16C329.006 236.22 315.986 231.18 315.986 216.62C315.986 203.18 327.186 194.08 347.346 194.08C370.306 194.08 379.266 205.7 379.966 218.3H358.966C358.266 212.56 355.186 209.48 347.766 209.48C341.606 209.48 338.946 211.72 338.946 215.22C338.946 219.98 343.146 220.26 353.926 222.78C368.066 226.14 382.066 230.34 382.066 247C382.066 261.98 370.726 270.24 350.006 270.24Z" fill="#F9C0BC"/>
<path d="M497.493 109.08C484.473 148.84 426.793 142.82 426.793 99.56C426.793 66.38 461.933 53.78 489.793 66.52L492.593 86.26H492.453C478.593 52.38 439.253 60.08 444.293 96.48C448.633 127.84 483.073 137.22 497.213 108.94L497.493 109.08ZM503.28 132.88V116.78V90.04C503.28 83.18 502.44 78 501.18 74.08L501.04 73.66L522.04 61.62V79.12C529.88 70.3 544.16 61.62 554.38 61.62L549.2 78.42C539.12 75.48 528.2 76.04 522.04 81.36V117.34C522.04 124.62 522.74 130.22 524.28 133.44L524.56 134H503.28V132.88ZM621.366 108.94C603.166 149.68 550.666 141.56 550.666 100.4C550.666 55.04 618.426 47.76 618.146 87.8H567.746C567.746 89.9 567.746 92.14 568.026 94.52C571.106 128.4 604.426 137.5 620.806 108.8L621.366 108.94ZM567.886 85.14H599.806L599.666 83.74C597.566 61.48 570.126 56.72 567.886 85.14ZM698.335 124.34C691.055 138.76 671.175 140.44 670.615 123.78C651.015 136.66 623.995 142.68 623.995 122.52C623.995 107.54 653.955 95.64 670.755 87.66V84.44C670.755 76.18 671.875 64 663.055 64C652.135 64 644.575 73.66 625.815 92.84L631.555 69.74C639.535 66.38 653.115 61.62 663.615 61.62C678.735 61.62 689.515 68.76 689.515 83.18V121.68C689.515 126.86 692.315 132.6 698.055 124.34H698.335ZM643.035 115.66C643.035 131.06 657.035 129.66 670.615 121.96L670.755 89.48C658.295 95.92 643.035 103.62 643.035 115.66ZM740.757 120.14C729.977 141.98 701.837 141 701.837 116.5V66.66H694.417L720.737 50.42V64H740.337V66.66H720.737V110.2C720.737 125.74 732.917 129.8 740.197 119.86L740.757 120.14ZM746.599 134V116.92V90.04C746.599 84.02 746.459 80.24 744.359 73.66L765.359 61.62V85.28V117.34C765.359 123.36 766.199 128.82 767.879 134H746.599ZM755.279 56.02C750.099 56.02 745.759 52.8 744.639 48.18C742.819 40.76 749.539 34.6 757.099 34.6C761.859 34.6 767.039 37.54 768.299 42.3C769.839 48.88 763.959 56.02 755.279 56.02ZM780.893 82.48L771.373 64.98L770.813 64H791.253L791.813 64.98C794.613 70.58 797.693 76.18 800.633 81.78L817.993 114.26L828.493 91.58C832.833 82.34 831.433 72.68 826.393 65.12L825.693 64H844.173L843.613 65.26L830.873 91.86L809.873 135.68H809.593L780.893 82.48ZM917.717 108.94C899.517 149.68 847.017 141.56 847.017 100.4C847.017 55.04 914.777 47.76 914.497 87.8H864.097C864.097 89.9 864.097 92.14 864.377 94.52C867.457 128.4 900.777 137.5 917.157 108.8L917.717 108.94ZM864.237 85.14H896.157L896.017 83.74C893.917 61.48 866.477 56.72 864.237 85.14Z" fill="#F9C0BC"/>
<path d="M173.651 134V54.48H144.531V33.9H227.831V54.48H198.851V134H173.651ZM235.126 134L215.106 62.32H237.506L248.286 106H248.566L260.606 62.32H280.206L292.246 106H292.666L303.446 62.32H325.146L305.126 134H284.126L270.266 88.64H269.986L256.126 134H235.126ZM362.014 136.38C338.354 136.38 323.934 120.98 323.934 98.3C323.934 75.76 338.354 59.94 362.434 59.94C386.094 59.94 400.514 75.34 400.514 97.88C400.514 120.56 386.094 136.38 362.014 136.38ZM346.614 98.16C346.614 112.02 352.214 119.58 362.294 119.58C372.234 119.58 377.834 112.02 377.834 98.16C377.834 84.3 372.234 76.74 362.294 76.74C352.214 76.74 346.614 84.3 346.614 98.16Z" fill="#F9C0BC"/>
</svg>
